<?xml version="1.0" standalone="no"?>
<!DOCTYPE svg PUBLIC "-//W3C//DTD SVG 20010904//EN"
 "http://www.w3.org/TR/2001/REC-SVG-20010904/DTD/svg10.dtd">
<svg version="1.0" xmlns="http://www.w3.org/2000/svg"
 width="57.000000pt" height="60.000000pt" viewBox="0 0 57.000000 60.000000"
 preserveAspectRatio="xMidYMid meet">

<g transform="translate(0.000000,60.000000) scale(0.100000,-0.100000)"
fill-opacity="0.6" fill="#EBEBF5" stroke="none">
<path d="M245 585 c-5 -2 -22 -6 -37 -9 -37 -8 -93 -59 -108 -98 -8 -18 -31
-50 -52 -71 -32 -32 -38 -44 -38 -80 0 -23 7 -52 15 -63 27 -40 61 -45 263
-42 l191 3 30 29 c17 16 35 44 41 62 24 71 -28 155 -104 169 -21 4 -42 18 -55
36 -30 40 -108 75 -146 64z m91 -76 c8 -7 22 -25 29 -39 11 -21 24 -29 56 -33
55 -7 81 -34 81 -83 0 -29 -6 -44 -27 -61 -25 -22 -33 -23 -201 -23 -102 0
-183 4 -195 10 -12 7 -19 21 -19 38 0 35 10 49 41 61 19 7 28 19 33 45 9 46
49 94 89 104 36 10 90 0 113 -19z"/>
<path d="M226 147 c-20 -54 -20 -57 4 -57 24 0 24 1 5 -44 -8 -20 -12 -36 -8
-36 10 0 123 112 123 122 0 4 -11 8 -25 8 -22 0 -24 3 -15 19 15 29 13 31 -29
31 -36 0 -39 -3 -55 -43z"/>
</g>
</svg>
