<?xml version="1.0" encoding="UTF-8"?>
<svg version="1.1" xmlns="http://www.w3.org/2000/svg" width="225" height="225">
<path d="M0 0 C0.68449219 0.59554688 1.36898437 1.19109375 2.07421875 1.8046875 C2.89277344 2.50335937 3.71132812 3.20203125 4.5546875 3.921875 C25.84402361 22.53796618 39.97183761 47.47733824 43.07421875 75.8046875 C44.642875 109.91298427 37.70237547 138.61424344 14.76171875 164.8671875 C-5.06166495 186.16892524 -31.11337192 200.56546873 -60.61450195 201.92895508 C-95.7033311 202.90238906 -124.85485184 192.89227828 -150.61328125 168.5546875 C-173.42021396 144.68795308 -182.86088759 114.81751341 -182.20703125 82.25 C-181.17614009 52.60328834 -167.00593169 25.80462579 -145.890625 5.4296875 C-105.91953856 -29.95973291 -42.08999913 -34.79439928 0 0 Z M-88.92578125 68.8046875 C-95.65784236 76.04129281 -97.36793477 82.83386802 -97.16796875 92.62109375 C-96.54883772 100.75967101 -92.9942654 106.40408206 -86.92578125 111.8046875 C-79.32305116 117.50328555 -71.16270914 118.019025 -61.92578125 116.8046875 C-53.03378907 114.22695573 -47.80163335 108.35038921 -42.98828125 100.7421875 C-40.24593105 93.22228379 -40.64759245 83.5366378 -43.92578125 76.3046875 C-48.10305172 69.21276786 -54.07766294 64.32729696 -61.92578125 61.8046875 C-72.18828108 59.61759737 -80.97159712 61.89990816 -88.92578125 68.8046875 Z " fill-opacity="0.9" fill="#1A1D1F" transform="translate(181.92578125,23.1953125)"/>
</svg>
