<?xml version="1.0" standalone="no"?>
<!DOCTYPE svg PUBLIC "-//W3C//DTD SVG 20010904//EN"
 "http://www.w3.org/TR/2001/REC-SVG-20010904/DTD/svg10.dtd">
<svg version="1.0" xmlns="http://www.w3.org/2000/svg"
 width="120" height="120" viewBox="0 0 1200.000000 1200.000000"
 preserveAspectRatio="xMidYMid meet">

<g transform="translate(0.000000,1200.000000) scale(0.100000,-0.100000)"
fill-opacity="0.6" fill="#EBEBF5" stroke="none">
<path d="M4551 11989 c-224 -38 -432 -221 -512 -449 l-23 -65 -9 -1393 c-5
-767 -6 -1399 -4 -1407 3 -7 439 -399 969 -871 530 -472 979 -874 1000 -892
l36 -33 1001 893 1001 893 -2 1395 -3 1395 -23 70 c-37 111 -88 193 -171 276
-83 83 -165 134 -276 171 l-70 23 -1430 1 c-811 1 -1453 -2 -1484 -7z"/>
<path d="M522 8025 c-35 -8 -103 -33 -150 -56 -71 -34 -102 -57 -172 -128 -89
-89 -129 -152 -172 -271 l-23 -65 -3 -1435 c-3 -1590 -6 -1505 62 -1646 81
-169 204 -280 388 -351 l73 -28 1406 -3 1406 -2 892 1000 892 1001 -168 188
c-92 103 -494 553 -893 999 l-724 812 -1376 -1 c-1127 0 -1386 -3 -1438 -14z"/>
<path d="M7790 7043 c-490 -549 -889 -1001 -887 -1006 1 -4 401 -455 887
-1002 l885 -994 1381 -1 c1346 0 1383 1 1458 20 118 30 208 82 302 176 69 67
90 96 130 180 l49 99 3 1507 2 1506 -24 66 c-70 194 -221 343 -416 411 l-85
30 -1397 3 -1397 2 -891 -997z"/>
<path d="M5865 5071 c-78 -69 -526 -469 -997 -888 l-856 -762 -7 -423 c-4
-233 -5 -857 -3 -1388 3 -885 5 -970 21 -1025 73 -249 251 -423 494 -485 74
-19 118 -20 1487 -20 1574 0 1480 -4 1635 71 70 34 102 58 172 128 70 70 94
102 128 172 75 155 71 66 71 1594 l0 1371 -617 549 c-1269 1131 -1373 1224
-1380 1228 -5 3 -71 -52 -148 -122z"/>
</g>
</svg>
