<?xml version="1.0" standalone="no"?>
<!DOCTYPE svg PUBLIC "-//W3C//DTD SVG 20010904//EN"
 "http://www.w3.org/TR/2001/REC-SVG-20010904/DTD/svg10.dtd">
<svg version="1.0" xmlns="http://www.w3.org/2000/svg"
 width="51.000000pt" height="50.000000pt" viewBox="0 0 51.000000 50.000000"
 preserveAspectRatio="xMidYMid meet">

<g transform="translate(0.000000,50.000000) scale(0.100000,-0.100000)"
fill-opacity="0.6" fill="#EBEBF5" stroke="none">
<path d="M155 471 c-50 -23 -109 -84 -130 -133 -45 -110 7 -249 115 -303 117
-60 271 -10 331 107 22 43 25 130 8 189 -38 124 -203 196 -324 140z m205 -65
c83 -55 106 -191 46 -270 -61 -80 -179 -100 -264 -44 -119 79 -100 267 33 330
54 25 133 19 185 -16z"/>
<path d="M235 379 c-9 -28 20 -63 30 -36 9 21 3 49 -12 54 -6 2 -14 -6 -18
-18z"/>
<path d="M144 349 c-3 -6 3 -21 15 -32 16 -16 23 -19 33 -9 9 9 7 16 -7 32
-20 23 -31 25 -41 9z"/>
<path d="M320 345 c-7 -8 -9 -22 -6 -32 6 -15 9 -15 28 4 11 12 17 26 14 32
-10 15 -21 14 -36 -4z"/>
<path d="M201 294 c-41 -53 -13 -114 52 -114 42 0 67 26 67 68 0 67 -79 97
-119 46z"/>
<path d="M107 256 c-7 -18 1 -26 29 -26 28 0 42 19 23 31 -21 13 -46 11 -52
-5z"/>
<path d="M347 264 c-17 -18 -6 -35 21 -32 16 2 27 9 27 18 0 16 -36 26 -48 14z"/>
<path d="M150 175 c-22 -26 4 -43 30 -20 20 18 18 35 -4 35 -8 0 -19 -7 -26
-15z"/>
<path d="M312 174 c4 -20 34 -41 45 -31 10 11 -11 41 -31 45 -12 3 -17 -2 -14
-14z"/>
<path d="M234 145 c-8 -21 3 -48 19 -43 19 7 22 58 2 58 -8 0 -18 -7 -21 -15z"/>
</g>
</svg>
